<?xml version="1.0" standalone="no"?>
<!DOCTYPE svg PUBLIC "-//W3C//DTD SVG 1.1//EN" "http://www.w3.org/Graphics/SVG/1.1/DTD/svg11.dtd">
<svg xmlns="http://www.w3.org/2000/svg" xmlns:xlink="http://www.w3.org/1999/xlink" version="1.1" id="Layer_1" x="0px" y="0px" width="1216.7686767578125" height="360.2724914550781" viewBox="0 0 1216.7687 360.2725" style="enable-background:new 0 0 1216.7687 360.2725;" xml:space="preserve">
<style type="text/css">
	.st0{fill:#00A225;}
	.st1{opacity:0.66;fill:#F97878;}
	.st2{opacity:0.71;fill:#00818B;}
	.st3{fill:#4C63D9;}
	.st4{opacity:0.71;fill:#FF5CDB;}
</style>
<g>
	<g>
		<path d="M87.0596,283.9307c-26.0752,0-47.1025-7.3955-63.0859-22.1875C7.9912,246.9531,0,225.9551,0,198.752v-15.6074h43.0596    v15.7949c0,15.9209,4.0098,28.0176,12.0342,36.291c8.0205,8.2734,18.6768,12.4102,31.9658,12.4102    c13.2852,0,23.9414-4.1367,31.9648-12.4102c8.0215-8.2734,12.0352-20.3701,12.0352-36.291V0h42.6836v198.5635    c0,27.3291-7.8984,48.3896-23.6934,63.1797C134.2559,276.5352,113.2578,283.9307,87.0596,283.9307z"/>
	</g>
	<g>
		<path d="M325.4697,284.4951c-19.6816,0-36.8867-4.5137-51.6152-13.5391c-14.7305-9.0254-26.168-21.6855-34.3154-37.9824    c-8.1504-16.2939-12.2217-35.2236-12.2217-56.7861c0-21.8115,4.0713-40.8975,12.2217-57.2559    c8.1475-16.3594,19.585-29.0508,34.3154-38.0762c14.7285-9.0264,31.9336-13.5391,51.6152-13.5391    c19.8057,0,37.0723,4.5127,51.8027,13.5391c14.7285,9.0254,26.166,21.7168,34.3164,38.0762    c8.1475,16.3584,12.2227,35.4443,12.2227,57.2559c0,21.5625-4.0752,40.4922-12.2227,56.7861    c-8.1504,16.2969-19.5879,28.957-34.3164,37.9824C362.542,279.9814,345.2754,284.4951,325.4697,284.4951z M325.4697,249.5205    c12.7871,0,23.3457-3.3525,31.6836-10.0596c8.3359-6.7051,14.541-15.6064,18.6152-26.7012    c4.0723-11.0938,6.1113-23.2832,6.1113-36.5723c0-13.4121-2.0391-25.7285-6.1113-36.9482    c-4.0742-11.2178-10.2793-20.1807-18.6152-26.8887c-8.3379-6.7041-18.8965-10.0596-31.6836-10.0596    c-12.6621,0-23.1279,3.3555-31.4014,10.0596c-8.2734,6.708-14.4492,15.6387-18.5205,26.7949    c-4.0762,11.1582-6.1113,23.5039-6.1113,37.042c0,13.2891,2.0352,25.4785,6.1113,36.5723    c4.0713,11.0947,10.2471,19.9961,18.5205,26.7012C302.3418,246.168,312.8076,249.5205,325.4697,249.5205z"/>
	</g>
	<g>
		<path d="M474.2744,355.7588l10.1533-33.6572l4.7002,1.1279c7.1465,1.8799,13.5684,2.3799,19.2734,1.5039    c5.7031-0.8779,10.6543-3.543,14.8555-7.9912c4.1982-4.4512,7.5508-11.1875,10.0596-20.2139l4.5127-15.418L457.915,69.9492h44.752    l41.5547,119.4004c4.6367,13.2891,8.4922,26.5127,11.5645,39.6758c3.0703,13.1621,6.4229,26.2627,10.0605,39.2988h-12.7871    c3.6348-13.0361,7.1133-26.166,10.4355-39.3936c3.3203-13.2236,7.3018-26.418,11.9414-39.5811l42.3066-119.4004h44.376    l-91.3838,239.3662c-4.2637,11.2812-9.4961,20.6836-15.7012,28.2041c-6.2051,7.5215-13.5703,13.1924-22.0938,17.0176    c-8.5264,3.8223-18.4277,5.7354-29.709,5.7354c-6.5195,0-12.3486-0.4707-17.4873-1.4111    C480.6025,357.9219,476.7803,356.8877,474.2744,355.7588z"/>
	</g>
	<g>
		<path d="M1184.2887,0.0034v280.1699h32.48V0.0034H1184.2887z"/>
	</g>
	<path class="st0" d="M723.1343,277.7134l0.6401-0.8101C723.5244,277.2234,723.3047,277.5034,723.1343,277.7134z"/>
	<path class="st0" d="M724.3345,276.1833c-0.2002,0.27-0.3901,0.5-0.5601,0.72L724.3345,276.1833z"/>
	<polygon class="st0" points="786.7687,196.4434 784.2787,199.6433 786.7487,196.4434  "/>
	<polygon class="st1" points="786.7687,196.4434 784.2787,199.6433 786.7487,196.4434  "/>
	<polygon class="st1" points="786.7687,196.4434 784.2787,199.6433 786.7487,196.4434  "/>
	<polygon class="st1" points="786.7687,196.4434 784.2787,199.6433 786.7487,196.4434  "/>
	<path class="st0" d="M988.7687,262.4434"/>
	<polygon class="st2" points="786.7687,196.4434 784.2787,199.6433 786.7487,196.4434  "/>
	<path class="st2" d="M723.1343,277.7134l0.6401-0.8101C723.5244,277.2234,723.3047,277.5034,723.1343,277.7134z"/>
	<path class="st2" d="M723.7744,276.9033l0.5601-0.72C724.1343,276.4534,723.9443,276.6833,723.7744,276.9033z"/>
	<path class="st2" d="M725.0244,275.3533c-0.0098-0.01-0.0098-0.01-0.02-0.0198L725.0244,275.3533z"/>
	<path class="st3" d="M904.2046,319.2534c-24.3604,23.0601-57.25,37.1899-93.4399,37.1899c-34.75,0-66.46-13.04-90.5-34.49   l19.3896-24.26c18.7002,17.23,43.6802,27.75,71.1104,27.75c27.3398,0,52.2295-10.4399,70.9097-27.5701L904.2046,319.2534z"/>
	<path d="M861.4844,67.9534v30.46c-28.7196,37.2197-106.3875,139.1571-136.48,176.9202   c0.1727,0.1227-24.1718,30.2234-24.1523,30.2424l-28.153-25.4059c29.1824-36.6241,107.2781-136.3203,137.0753-174.2366v-1.8801   H700.1543V67.9534H861.4844z"/>
	<path d="M723.1343,277.7134l0.6401-0.8101C723.5244,277.2234,723.3047,277.5034,723.1343,277.7134z"/>
	<path d="M723.7744,276.9033l0.5601-0.72C724.1343,276.4534,723.9443,276.6833,723.7744,276.9033z"/>
	<path class="st4" d="M723.1343,277.7134l0.6401-0.8101C723.5244,277.2234,723.3047,277.5034,723.1343,277.7134z"/>
	<path class="st4" d="M723.7744,276.9033l0.5601-0.72C724.1343,276.4534,723.9443,276.6833,723.7744,276.9033z"/>
	<path class="st4" d="M726.1846,273.8232l-1.1602,1.53c-0.0098-0.01-0.0098-0.01-0.02-0.0198L726.1846,273.8232z"/>
	<polygon class="st4" points="786.7687,196.4434 784.2787,199.6433 786.7487,196.4434  "/>
	<path d="M923.4525,302.0861c13.5047-36.7475,23.1655-64.45,34.1219-94.6427c20.7889-0.0251,105.6271-0.1399,127.9944-0.1699   l24.4299,73.8999h40.3999c-1.7559-4.846-75.7828-209.0665-101.5398-280.1699h-52.6501   c-31.1899,87.7-66.5801,187.1299-98.54,277.0601L923.4525,302.0861z M968.6886,177.4434c27.78-74,39.4311-107.047,54.561-147.2169   c15.1384,44.9265,39.4725,107.6446,52.459,147.2169H968.6886z"/>
</g>
</svg>